<svg xmlns="http://www.w3.org/2000/svg" viewBox="0 0 32 32"><defs><linearGradient id="g" x1="0%" y1="0%" x2="100%" y2="100%"><stop offset="0%" style="stop-color:#a78bfa"/><stop offset="50%" style="stop-color:#818cf8"/><stop offset="100%" style="stop-color:#60a5fa"/></linearGradient></defs><rect width="32" height="32" rx="8" fill="url(#g)"/><path d="M10 8H8C7.45 8 7 8.45 7 9v2c0 .55.45 1 1 1h2c.55 0 1-.45 1-1V9c0-.55-.45-1-1-1zm0 3H8V9h2v2zm7-3h-2c-.55 0-1 .45-1 1v2c0 .55.45 1 1 1h2c.55 0 1-.45 1-1V9c0-.55-.45-1-1-1zm0 3h-2V9h2v2zM10 15H8c-.55 0-1 .45-1 1v2c0 .55.45 1 1 1h2c.55 0 1-.45 1-1v-2c0-.55-.45-1-1-1zm0 3H8v-2h2v2zm7-3h-2c-.55 0-1 .45-1 1v2c0 .55.45 1 1 1h2c.55 0 1-.45 1-1v-2c0-.55-.45-1-1-1zm0 3h-2v-2h2v2z" fill="white" transform="translate(4 4)"/></svg>
